HIERARCHY
ROOT joint_Root
{
  OFFSET 0 0 0
  CHANNELS 6 Xposition Yposition Zposition Zrotation Xrotation Yrotation
  JOINT Hips
  {
    OFFSET 0.847027 93.984 -452.225
    CHANNELS 6 Xposition Yposition Zposition Zrotation Xrotation Yrotation
    JOINT Spine
    {
      OFFSET 15.7357 0 0
      CHANNELS 6 Xposition Yposition Zposition Zrotation Xrotation Yrotation
      JOINT Chest
      {
        OFFSET 8.98455 -0.406207 0
        CHANNELS 6 Xposition Yposition Zposition Zrotation Xrotation Yrotation
        JOINT Neck
        {
          OFFSET 16.3773 0 0
          CHANNELS 6 Xposition Yposition Zposition Zrotation Xrotation Yrotation
          JOINT Head
          {
            OFFSET 6.45672 0 0
            CHANNELS 6 Xposition Yposition Zposition Zrotation Xrotation Yrotation
            End Site
            {
              OFFSET 0 0 0
            }
          }
        }
        JOINT Shoulder_L
        {
          OFFSET 12.9942 -0.242716 4.98039
          CHANNELS 6 Xposition Yposition Zposition Zrotation Xrotation Yrotation
          JOINT UpperArm_L
          {
            OFFSET 5.34809 0 0
            CHANNELS 6 Xposition Yposition Zposition Zrotation Xrotation Yrotation
            JOINT LowerArm_L
            {
              OFFSET 24.3286 1.87007e-05 0
              CHANNELS 6 Xposition Yposition Zposition Zrotation Xrotation Yrotation
              JOINT Hand_L
              {
                OFFSET 22.2916 0 0
                CHANNELS 6 Xposition Yposition Zposition Zrotation Xrotation Yrotation
                End Site
                {
                  OFFSET 0 0 0
                }
              }
            }
          }
        }
        JOINT Shoulder_R
        {
          OFFSET 12.9945 -0.242716 -4.98039
          CHANNELS 6 Xposition Yposition Zposition Zrotation Xrotation Yrotation
          JOINT UpperArm_R
          {
            OFFSET -5.34813 0 0
            CHANNELS 6 Xposition Yposition Zposition Zrotation Xrotation Yrotation
            JOINT LowerArm_R
            {
              OFFSET -24.3289 0.000322201 0
              CHANNELS 6 Xposition Yposition Zposition Zrotation Xrotation Yrotation
              JOINT Hand_R
              {
                OFFSET -22.2915 -0.000108084 0
                CHANNELS 6 Xposition Yposition Zposition Zrotation Xrotation Yrotation
                End Site
                {
                  OFFSET 0 0 0
                }
              }
            }
          }
        }
      }
    }
    JOINT UpperLeg_L
    {
      OFFSET -2.19248 -6.46944 0
      CHANNELS 6 Xposition Yposition Zposition Zrotation Xrotation Yrotation
      JOINT LowerLeg_L
      {
        OFFSET 39.0811 0 -1.23785e-05
        CHANNELS 6 Xposition Yposition Zposition Zrotation Xrotation Yrotation
        JOINT Foot_L
        {
          OFFSET 40.9854 0 -1.26872e-05
          CHANNELS 6 Xposition Yposition Zposition Zrotation Xrotation Yrotation
          JOINT Toes_L
          {
            OFFSET 11.7543 0 0
            CHANNELS 6 Xposition Yposition Zposition Zrotation Xrotation Yrotation
            End Site
            {
              OFFSET 0 0 0
            }
          }
        }
      }
    }
    JOINT UpperLeg_R
    {
      OFFSET -2.19251 6.46944 0
      CHANNELS 6 Xposition Yposition Zposition Zrotation Xrotation Yrotation
      JOINT LowerLeg_R
      {
        OFFSET -39.0811 -0.00228153 -0.0401928
        CHANNELS 6 Xposition Yposition Zposition Zrotation Xrotation Yrotation
        JOINT Foot_R
        {
          OFFSET -40.9854 0 0
          CHANNELS 6 Xposition Yposition Zposition Zrotation Xrotation Yrotation
          JOINT Toes_R
          {
            OFFSET -11.7543 0 0
            CHANNELS 6 Xposition Yposition Zposition Zrotation Xrotation Yrotation
            End Site
            {
              OFFSET 0 0 0
            }
          }
        }
      }
    }
  }
}
MOTION
Frames:	8
Frame Time:	0.0333333
0 0 0 0 0 -0 1.22658 84.2323 -60.691 86.8893 -7.65085 -2.00063 15.7357 5.1072e-06 -5.51765e-07 99.8053 82.1785 -103.366 8.98455 -0.406207 -4.3199e-07 7.74737 2.65357 -7.2947 16.3773 -1.3905e-06 -6.99897e-07 -0.638993 -2.57278 1.52898 6.45672 -1.25837e-06 -1.02172e-07 -7.37025 -4.626 7.47111 12.9942 -0.242716 4.98039 -90.4017 1.14971 -85.745 5.34809 -7.22636e-06 -6.2814e-07 -58.3636 3.73452 -2.03827 24.3286 1.87007e-05 4.90208e-06 1.36991 2.43191 -29.4115 22.2916 -9.88446e-07 4.63217e-06 17.7745 5.59074 -10.8035 12.9945 -0.242716 -4.98039 88.7587 8.49472 -96.6555 -5.34813 -1.25947e-06 -3.79883e-06 -61.1757 7.77591 5.66412 -24.3289 0.000322201 -8.65921e-06 6.22114 8.45407 -36.5609 -22.2915 -0.000108084 -4.47941e-06 2.97085 5.56958 -9.66661 -2.19248 -6.46944 -1.22534e-07 -174.761 -10.701 -34.1717 39.0811 -6.73843e-06 -1.23785e-05 0.137372 -0.0767844 59.1293 40.9854 -6.48686e-06 -1.26872e-05 0.019583 -2.51829 -74.7211 11.7543 -2.30145e-07 3.05095e-06 -0.0864071 -0.143358 -17.0835 -2.19251 6.46944 -1.45247e-06 170.535 8.826 171.201 -39.0811 -0.00228153 -0.0401928 0.600682 -0.220848 68.3265 -40.9854 7.72618e-06 5.99936e-06 -3.63337 -5.78038 -49.3215 -11.7543 -5.6619e-06 -5.58687e-06 0.382317 -0.4593 -20.9687 
0 0 0 0 0 -0 1.47183 85.9199 -57.3396 86.126 -7.57666 -2.39269 15.7357 5.1072e-06 -5.51765e-07 95.9347 82.8019 -98.8271 8.98455 -0.406207 -4.3199e-07 6.5996 1.51316 -5.86601 16.3773 -1.3905e-06 -6.99897e-07 -0.204493 -1.99006 1.78284 6.45672 -1.25837e-06 -1.02172e-07 -5.17319 -2.78906 7.32044 12.9942 -0.242716 4.98039 -90.1271 0.378043 -86.4215 5.34809 -7.22636e-06 -6.2814e-07 -58.5941 5.35462 -3.7595 24.3286 1.87007e-05 4.90208e-06 1.2092 1.95258 -31.7863 22.2916 -9.88446e-07 4.63217e-06 18.0098 5.59086 -10.8121 12.9945 -0.242716 -4.98039 88.6726 8.48039 -96.0697 -5.34813 -1.25947e-06 -3.79883e-06 -62.3813 7.23869 9.13309 -24.3289 0.000322201 -8.65921e-06 6.16699 8.47958 -36.2378 -22.2915 -0.000108084 -4.47941e-06 2.74978 5.56934 -9.65327 -2.19248 -6.46944 -1.22534e-07 -174.145 -9.56037 -29.4494 39.0811 -6.73843e-06 -1.23785e-05 0.10829 -0.0703031 54.6245 40.9854 -6.48686e-06 -1.26872e-05 -0.226137 -3.58301 -75.1126 11.7543 -2.30145e-07 3.05095e-06 -0.0947797 -0.164044 -17.2096 -2.19251 6.46944 -1.45247e-06 171.945 11.1393 166.799 -39.0811 -0.00228153 -0.0401928 0.643352 -0.240051 68.5012 -40.9854 7.72618e-06 5.99936e-06 -6.45963 -3.86892 -48.7798 -11.7543 -5.6619e-06 -5.58687e-06 0.372654 -0.446773 -20.8525 
0 0 0 0 0 -0 1.65893 87.5165 -53.9892 85.4938 -7.85118 -2.42866 15.7357 5.1072e-06 -5.51765e-07 91.7652 83.277 -93.9741 8.98455 -0.406207 -4.3199e-07 5.68633 0.45311 -4.43543 16.3773 -1.3905e-06 -6.99897e-07 0.347683 -1.29173 1.93016 6.45672 -1.25837e-06 -1.02172e-07 -2.56689 -0.803387 6.74131 12.9942 -0.242716 4.98039 -89.8773 -0.378071 -87.0032 5.34809 -7.22636e-06 -6.2814e-07 -58.3384 6.91629 -4.99543 24.3286 1.87007e-05 4.90208e-06 0.800276 1.15996 -34.6223 22.2916 -9.88446e-07 4.63217e-06 18.3732 5.59151 -10.8478 12.9945 -0.242716 -4.98039 88.5914 8.20345 -95.2217 -5.34813 -1.25947e-06 -3.79883e-06 -62.9491 6.28728 12.1025 -24.3289 0.000322201 -8.65921e-06 6.15032 8.52029 -36.0335 -22.2915 -0.000108084 -4.47941e-06 2.03787 5.56936 -9.6547 -2.19248 -6.46944 -1.22533e-07 -173.624 -8.93738 -24.0784 39.0811 -6.73843e-06 -1.23785e-05 0.0808498 -0.0599282 49.4626 40.9854 -6.48686e-06 -1.26872e-05 -0.43311 -4.45242 -75.1628 11.7543 -2.30145e-07 3.05095e-06 -0.103284 -0.170741 -17.1807 -2.19251 6.46944 -1.45247e-06 173.769 13.4407 162.857 -39.0811 -0.00228153 -0.0401928 0.606507 -0.245604 67.0806 -40.9854 7.72618e-06 5.99936e-06 -8.18102 -2.62206 -50.0928 -11.7543 -5.6619e-06 -5.58687e-06 0.350369 -0.418064 -20.5853 
0 0 0 0 0 -0 1.85021 88.9518 -50.6228 85.1351 -8.38571 -2.09327 15.7357 5.1072e-06 -5.51765e-07 87.5571 83.4645 -89.1533 8.98455 -0.406207 -4.3199e-07 5.28796 -0.521476 -3.16476 16.3773 -1.3905e-06 -6.99897e-07 0.974972 -0.585271 2.08087 6.45672 -1.25837e-06 -1.02172e-07 -0.295413 1.21857 5.91767 12.9942 -0.242716 4.98039 -89.7154 -0.906448 -87.5682 5.34809 -7.22636e-06 -6.2814e-07 -57.5407 7.68139 -6.11958 24.3286 1.87007e-05 4.90208e-06 0.337416 0.437512 -37.6638 22.2916 -9.88446e-07 4.63217e-06 18.6368 5.58937 -10.7267 12.9945 -0.242716 -4.98039 88.5102 7.8623 -94.235 -5.34813 -1.25947e-06 -3.79883e-06 -62.7508 5.54567 14.393 -24.3289 0.000322201 -8.65921e-06 5.94982 8.22325 -36.084 -22.2915 -0.000108084 -4.47941e-06 1.62466 5.56286 -9.32746 -2.19248 -6.46944 -1.22533e-07 -173.385 -9.01571 -18.1255 39.0811 -6.73843e-06 -1.23785e-05 0.0583657 -0.0483823 43.7222 40.9854 -6.48686e-06 -1.26872e-05 -0.286824 -4.98869 -74.7428 11.7543 -2.30145e-07 3.05095e-06 -0.0614793 -0.134289 -17.2844 -2.19251 6.46944 -1.45247e-06 175.639 15.5004 159.56 -39.0811 -0.00228153 -0.0401928 0.511808 -0.241529 63.9251 -40.9854 7.72618e-06 5.99936e-06 -8.89836 -0.935636 -51.9518 -11.7543 -5.6619e-06 -5.58687e-06 0.341307 -0.406464 -20.477 
0 0 0 0 0 -0 2.05673 90.0473 -47.2907 84.9622 -8.74194 -1.87363 15.7357 5.1072e-06 -5.51765e-07 82.7671 83.5866 -83.7948 8.98455 -0.406207 -4.3199e-07 4.94672 -1.58643 -1.98446 16.3773 -1.3905e-06 -6.99897e-07 1.96166 0.018361 2.15591 6.45672 -1.25837e-06 -1.02172e-07 1.08967 2.95109 5.16431 12.9942 -0.242716 4.98039 -89.568 -1.4037 -87.892 5.34809 -7.22636e-06 -6.2814e-07 -56.444 8.00643 -7.20827 24.3286 1.87007e-05 4.90208e-06 0.256717 0.299437 -40.6275 22.2916 -9.88446e-07 4.63217e-06 18.7548 5.58875 -10.6918 12.9945 -0.242716 -4.98039 88.4277 7.48318 -93.0974 -5.34813 -1.25947e-06 -3.79883e-06 -61.9963 4.97498 16.3354 -24.3289 0.000322201 -8.65921e-06 5.89256 8.05095 -36.3928 -22.2915 -0.000108084 -4.47941e-06 1.44903 5.56204 -9.28668 -2.19248 -6.46944 -1.22533e-07 -173.328 -9.37802 -12.4868 39.0811 -6.73843e-06 -1.23785e-05 0.0411759 -0.0353627 37.9798 40.9854 -6.48686e-06 -1.26872e-05 -0.0336888 -5.16219 -74.0407 11.7543 -2.30145e-07 3.05095e-06 -0.1455 -0.256743 -17.627 -2.19251 6.46944 -1.45247e-06 177.645 17.3895 156.535 -39.0811 -0.00228153 -0.0401928 0.404105 -0.235123 59.1038 -40.9854 7.72618e-06 5.99936e-06 -10.0017 0.572013 -52.7924 -11.7543 -5.6619e-06 -5.58687e-06 0.330449 -0.392658 -20.3479 
0 0 0 0 0 -0 2.14945 90.7393 -44.1969 84.7864 -8.2437 -2.3482 15.7357 5.1072e-06 -5.51765e-07 76.3644 83.7029 -76.7675 8.98455 -0.406207 -4.3199e-07 4.46782 -2.95235 -0.690342 16.3773 -1.3905e-06 -6.99897e-07 2.88727 0.308189 2.09341 6.45672 -1.25837e-06 -1.02172e-07 1.70715 4.21311 4.50505 12.9942 -0.242716 4.98039 -89.3955 -2.00488 -88.2154 5.34809 -7.22636e-06 -6.2814e-07 -55.2176 7.89454 -8.47164 24.3286 1.87007e-05 4.90208e-06 0.273863 0.287025 -43.6618 22.2916 -9.88446e-07 4.63217e-06 19.0598 5.58634 -10.5584 12.9945 -0.242716 -4.98039 88.3534 6.97257 -91.6767 -5.34813 -1.25947e-06 -3.79883e-06 -60.9111 4.68962 17.8163 -24.3289 0.000322201 -8.65921e-06 5.76093 7.64905 -37.1657 -22.2915 -0.000108084 -4.47941e-06 1.2339 5.56299 -9.33481 -2.19248 -6.46944 -1.22534e-07 -173.247 -9.35021 -8.41626 39.0811 -6.73843e-06 -1.23785e-05 0.0286761 -0.0222847 33.1423 40.9854 -6.48686e-06 -1.26872e-05 0.380069 -5.01538 -73.3124 11.7543 -2.30145e-07 3.05095e-06 -0.27051 -0.417526 -17.9198 -2.19251 6.46944 -1.45247e-06 -179.671 19.4391 153.174 -39.0811 -0.00228153 -0.0401928 0.292095 -0.21563 52.9053 -40.9854 7.72618e-06 5.99936e-06 -10.4513 1.87603 -53.372 -11.7543 -5.6619e-06 -5.58687e-06 0.344071 -0.410001 -20.5101 
0 0 0 0 0 -0 2.21535 90.9251 -41.2325 84.913 -7.1962 -3.18959 15.7357 5.1072e-06 -5.51765e-07 70.056 83.7323 -69.8934 8.98455 -0.406207 -4.3199e-07 4.03301 -4.27484 0.475597 16.3773 -1.3905e-06 -6.99897e-07 3.46125 0.179333 2.11872 6.45672 -1.25837e-06 -1.02172e-07 1.86048 5.07147 3.70268 12.9942 -0.242716 4.98039 -89.2373 -2.60186 -88.6535 5.34809 -7.22636e-06 -6.2814e-07 -53.7633 7.54634 -9.96981 24.3286 1.87007e-05 4.90208e-06 -0.0262146 -0.0245702 -46.7307 22.2916 -9.88446e-07 4.63217e-06 19.5642 5.58459 -10.4612 12.9945 -0.242716 -4.98039 88.2717 6.5223 -90.1235 -5.34813 -1.25947e-06 -3.79883e-06 -59.525 4.20545 19.2097 -24.3289 0.000322201 -8.65921e-06 5.64663 7.13638 -38.5217 -22.2915 -0.000108084 -4.47941e-06 1.01698 5.56613 -9.49102 -2.19248 -6.46944 -1.22534e-07 -173.367 -9.17767 -5.75502 39.0811 -6.73843e-06 -1.23785e-05 0.0210986 -0.0102608 29.8617 40.9854 -6.48686e-06 -1.26872e-05 0.462235 -4.42205 -73.1559 11.7543 -2.30145e-07 3.05095e-06 -0.319299 -0.501547 -18.3081 -2.19251 6.46944 -1.45247e-06 -177.046 20.9959 149.849 -39.0811 -0.00228153 -0.0401928 0.183952 -0.177267 45.498 -40.9854 7.72618e-06 5.99936e-06 -10.685 3.16602 -54.0976 -11.7543 -5.6619e-06 -5.58687e-06 0.336243 -0.400003 -20.4168 
0 0 0 0 0 -0 2.21915 90.6556 -38.2745 85.3383 -5.85974 -3.94887 15.7357 5.1072e-06 -5.51765e-07 65.1946 83.6115 -64.5458 8.98455 -0.406207 -4.3199e-07 3.87704 -5.37494 1.47895 16.3773 -1.3905e-06 -6.99897e-07 3.70585 -0.140215 2.12754 6.45672 -1.25837e-06 -1.02172e-07 1.65732 5.58378 3.01296 12.9942 -0.242716 4.98039 -89.1088 -3.14395 -89.164 5.34809 -7.22636e-06 -6.2814e-07 -52.259 6.81471 -11.6891 24.3286 1.87007e-05 4.90208e-06 -0.459604 -0.390493 -49.6406 22.2916 -9.88446e-07 4.63217e-06 20.0421 5.58389 -10.4227 12.9945 -0.242716 -4.98039 88.1779 6.2165 -88.6275 -5.34813 -1.25947e-06 -3.79883e-06 -58.0395 3.51522 20.6548 -24.3289 0.000322201 -8.65921e-06 5.44261 6.47191 -40.2132 -22.2915 -0.000108084 -4.47941e-06 1.09221 5.56863 -9.61779 -2.19248 -6.46944 -1.22534e-07 -173.689 -8.69206 -3.81039 39.0811 -6.73843e-06 -1.23785e-05 0.0164667 0.000782017 28.1005 40.9854 -6.48686e-06 -1.26872e-05 0.753202 -3.78787 -73.6741 11.7543 -2.30145e-07 3.05095e-06 -0.492067 -0.744849 -19.0789 -2.19251 6.46944 -1.45247e-06 -174.941 21.8944 147.258 -39.0811 -0.00228153 -0.0401928 0.0997133 -0.129374 36.8197 -40.9854 7.72618e-06 5.99936e-06 -11.1753 3.96589 -54.0107 -11.7543 -5.6619e-06 -5.58687e-06 0.326131 -0.387169 -20.2967 
